<svg
  width="100"
  height="100"
  viewBox="0 0 100 100"
  xmlns="http://www.w3.org/2000/svg"
>
  <!-- Ведро -->
  <path
  id="basket"
    d="M50 2c-1.5 0-3 .7-3.9 1.9l-10 12c-1.5 1.8-1.3 4.5.4 6 1.8 1.5 4.5 1.3 6-.4l3.5-4.2V52H26c-3.3 0-6 2.7-6 6v36c0 3.3 2.7 6 6 6h48c3.3 0 6-2.7 6-6V58c0-3.3-2.7-6-6-6H37V16.3l3.5 4.2c.8.9 2 1.3 3.1 1.3.9 0 1.7-.3 2.4-.8 1.7-1.5 1.9-4.2.4-6l-10-12C53 2.7 51.3 2 50 2zm0 4c.3 0 .6.1.9.2L60 18H40L49.1 6.2c.3-.3.7-.2 1 .1.3.3.4.7.2 1L49 8h2l-.3-.7c-.2-.3-.1-.7.1-1 .2-.2.4-.3.7-.3zM26 56h48c1.1 0 2 .9 2 2v36c0 1.1-.9 2-2 2H26c-1.1 0-2-.9-2-2V58c0-1.1.9-2 2-2zm24 8c0 1.1.9 2 2 2h2c1.1 0 2-.9 2-2v28c0 1.1-.9 2-2 2h-2c-1.1 0-2-.9-2-2V64zm-12 0c0 1.1.9 2 2 2h2c1.1 0 2-.9 2-2v28c0 1.1-.9 2-2 2h-2c-1.1 0-2-.9-2-2V64z"
    fill="#000"
  />
  <!-- Кнопка удаления -->
  <!-- <path
    d="M44 74c-.3 0-.6-.1-.9-.2l-4-1.5c-.4-.2-.6-.6-.6-1s.2-.8.6-1l4-1.5c.4-.2.8-.2 1.2 0s.6.6.6 1v3c0 .4-.2.8-.6 1-.2.1-.5.2-.7.2zm-2-6c-.3 0-.6-.1-.9-.2l-4-1.5c-.4-.2-.6-.6-.6-1s.2-.8.6-1l4-1.5c.4-.2.8-.2 1.2 0s.6.6.6 1v3c0 .4-.2.8-.6 1-.2.1-.5.2-.7.2zm4-6c-.3 0-.6-.1-.9-.2l-4-1.5c-.4-.2-.6-.6-.6-1s.2-.8.6-1l4-1.5c.4-.2.8-.2 1.2 0s.6.6.6 1v3c0 .4-.2.8-.6 1-.2.1-.5.2-.7.2zm-4-6c-.3 0-.6-.1-.9-.2l-4-1.5c-.4-.2-.6-.6-.6-1s.2-.8.6-1l4-1.5c.4-.2.8-.2 1.2 0s.6.6.6 1v3c0 .4-.2.8-.6 1-.2.1-.5.2-.7.2zm8-6c-.3 0-.6-.1-.9-.2l-4-1.5c-.4-.2-.6-.6-.6-1s.2-.8.6-1l4-1.5c.4-.2.8-.2 1.2 0s.6.6.6 1v3c0 .4-.2.8-.6 1-.2.1-.5.2-.7.2zm-12-6c-.3 0-.6-.1-.9-.2l-4-1.5c-.4-.2-.6-.6-.6-1s.2-.8.6-1l4-1.5c.4-.2.8-.2 1.2 0s.6.6.6 1v3c0 .4-.2.8-.6 1-.2.1-.5.2-.7.2zm16-6c-.3 0-.6-.1-.9-.2l-4-1.5c-.4-.2-.6-.6-.6-1s.2-.8.6-1l4-1.5c.4-.2.8-.2 1.2 0s.6.6.6 1v3c0 .4-.2.8-.6 1-.2.1-.5.2-.7.2z"
    fill="#FF0000"
  /> -->
</svg>
